<svg width="800" height="600" xmlns="http://www.w3.org/2000/svg">
 <g>
  <title>Layer 1</title>
  <path d="m101.99998,85.33498c1,0 1.06982,1.98878 2,8c2.16262,13.9758 1.68134,38.76942 13,69c15.84487,42.31949 42.15952,77.33252 77.99999,87c37.7037,10.17006 72.11725,-10.79655 100,-27c22.09406,-12.83948 30.79025,-16.99023 38,-18c6.93234,-0.9709 15.65466,1.06438 26,9c12.91644,9.90785 21.82492,25.61066 30,43.99998c10.03299,22.56854 14.25668,39.39703 22,53c8.23349,14.46408 23.33942,26.43723 45,31c31.45013,6.62494 69.18393,5.08752 115.99997,15c56.24225,11.90829 102,32 142,51l18,7" id="svg_21" stroke="#000" fill="none"/>
  <rect fill="#fff" stroke="#000" x="70.99998" y="333.33497" width="314.99999" height="164" id="svg_1"/>
  <ellipse fill="#fff" stroke="#000" cx="594.49996" cy="193.33498" id="svg_2" rx="120.5" ry="117"/>
  <circle r="79.5" id="svg_3" cy="482.83497" cx="536.49996" stroke="#000" fill="#fff"/>
  <path id="svg_4" d="m273.62996,84.85628l52.26949,0l16.15167,-49.65572l16.15168,49.65572l52.26948,0l-42.28683,30.68857l16.15251,49.65572l-42.28685,-30.68941l-42.28684,30.68941l16.15252,-49.65572l-42.28684,-30.68857z" stroke="#000" fill="#fff"/>
 </g>

</svg>